<?xml version="1.0" encoding="UTF-8"?>
<svg id="Layer_2" data-name="Layer 2" xmlns="http://www.w3.org/2000/svg" viewBox="0 0 480 480">
  <g id="Layer_1-2" data-name="Layer 1">
    <path d="m448,0c-17.67,0-32,14.31-32,32v74.09c-39.9-55.57-104.6-90.09-176-90.09-94.5,0-177.41,60.34-206.42,150.2-5.44,16.81,3.8,34.88,20.61,40.28,16.89,5.5,34.88-3.81,40.3-20.59,20.41-63.39,78.91-105.89,145.51-105.89,50.5,0,96.26,24.55,124.4,64h-44.4c-17.67,0-32,14.31-32,32s14.33,32,32,32h128c17.67,0,32-14.31,32-32V32c0-17.69-14.3-32-32-32Zm-22.2,273.6c-16.92-5.44-34.88,3.81-40.3,20.59-20.4,63.31-78.9,105.81-145.5,105.81-50.5,0-96.25-24.55-124.4-64h44.4c17.67,0,32-14.31,32-32s-14.33-32-32-32H32c-17.67,0-32,14.31-32,32v144c0,17.69,14.33,32,32,32s32-14.31,32-32v-74.09c39.9,55.59,104.6,90.09,175.1,90.09,94.45,0,177.4-60.34,206.4-150.2,6.4-16.8-2.9-35.7-19.7-40.2Z"/>
  </g>
</svg>