   <symbol id="code" viewBox="0 0 64 64">
   <?xml version="1.0" encoding="UTF-8"?>
<svg id="scode" data-name="Layer 2" xmlns="http://www.w3.org/2000/svg" viewBox="0 0 639.97 512.03">
  <g id="Layer_1-2" data-name="Layer 1">
    <path d="m414.8,40.8l-128,448.01c-4.9,17-22.6,26.8-39.6,22-17-4.9-26.8-22.6-22-39.6L353.2,23.22c4.9-16.99,22.6-26.83,39.6-21.98,17,4.85,26.8,22.57,22,39.56h0Zm103.8,80.61l112,112c12.5,12.5,12.5,32.7,0,45.2l-112,112c-12.5,12.5-32.7,12.5-45.2,0s-12.5-32.7,0-45.2l89.3-89.4-89.3-89.4c-12.5-12.5-12.5-32.7,0-45.2,12.5-12.5,32.7-12.5,45.2,0h0Zm-352,45.2l-89.35,89.4,89.35,89.4c12.5,12.5,12.5,32.7,0,45.2s-32.7,12.5-45.2,0L9.37,278.61c-12.5-12.5-12.5-32.7,0-45.2l112.03-112c12.5-12.5,32.7-12.5,45.2,0,12.5,12.5,12.5,32.7,0,45.2h0Z"/>
  </g>
</svg>