<?xml version="1.0" encoding="utf-8"?>
<svg xmlns="http://www.w3.org/2000/svg" xmlns:xlink="http://www.w3.org/1999/xlink" width="1160" height="738">
  <clipPath id="cl_3">
    <rect x="-0.28631592" width="1160.5728" height="738"></rect>
  </clipPath>
  <g clip-path="url(#cl_3)">
    <path fill="#983AB1" transform="matrix(1.00136 0 0 1.00136 570.988 372.004)" d="M-547.5 -330.5C-547.5 -344.307 -536.307 -355.5 -522.5 -355.5L522.5 -355.5C536.307 -355.5 547.5 -344.307 547.5 -330.5L547.5 331C547.5 344.807 536.307 356 522.5 356L-522.5 356C-536.307 356 -547.5 344.807 -547.5 331L-547.5 -330.5Z"></path>
    <path fill="none" stroke="#2E2E2E" stroke-width="4" stroke-miterlimit="4" transform="matrix(1.00136 0 0 1.00136 570.988 372.004)" d="M-547.5 -330.5C-547.5 -344.307 -536.307 -355.5 -522.5 -355.5L522.5 -355.5C536.307 -355.5 547.5 -344.307 547.5 -330.5L547.5 331C547.5 344.807 536.307 356 522.5 356L-522.5 356C-536.307 356 -547.5 344.807 -547.5 331L-547.5 -330.5Z"></path>
    <path fill="#E7E7E7" transform="matrix(1.00136 0 0 1.00136 585.507 359.988)" d="M-547 -330C-547 -341.046 -538.046 -350 -527 -350L527.5 -350C538.546 -350 547.5 -341.046 547.5 -330L547.5 329.5C547.5 340.546 538.546 349.5 527.5 349.5L-527 349.5C-538.046 349.5 -547 340.546 -547 329.5L-547 -330Z"></path>
    <path fill="none" stroke="#2E2E2E" stroke-width="4" stroke-miterlimit="4" transform="matrix(1.00136 0 0 1.00136 585.507 359.988)" d="M-547 -330C-547 -341.046 -538.046 -350 -527 -350L527.5 -350C538.546 -350 547.5 -341.046 547.5 -330L547.5 329.5C547.5 340.546 538.546 349.5 527.5 349.5L-527 349.5C-538.046 349.5 -547 340.546 -547 329.5L-547 -330Z"></path>
    <path fill="#F4AF41" transform="matrix(1.00136 0 0 1.00136 585.507 33.9166)" d="M-547.5 -4.87073C-547.5 -15.9164 -538.546 -24.8707 -527.5 -24.8707L527.5 -24.8707C538.546 -24.8707 547.5 -15.9164 547.5 -4.87073L547.5 24.8707L-547.5 24.8707L-547.5 -4.87073Z"></path>
    <path fill="none" stroke="#2E2E2E" stroke-width="4" stroke-miterlimit="4" transform="matrix(1.00136 0 0 1.00136 585.507 33.9166)" d="M-547.5 -4.87073C-547.5 -15.9164 -538.546 -24.8707 -527.5 -24.8707L527.5 -24.8707C538.546 -24.8707 547.5 -15.9164 547.5 -4.87073L547.5 24.8707L-547.5 24.8707L-547.5 -4.87073Z"></path>
    <path fill="#62A75D" transform="matrix(0.600814 0 0 0.600814 156.088 33.9166)" d="M0 -22.3235C12.3289 -22.3235 22.3235 -12.3289 22.3235 0C22.3235 12.3289 12.3289 22.3235 0 22.3235C-12.3289 22.3235 -22.3235 12.3289 -22.3235 0C-22.3235 -12.3289 -12.3289 -22.3235 0 -22.3235Z"></path>
    <path fill="none" stroke="#2E2E2E" stroke-width="5" stroke-miterlimit="4" transform="matrix(0.600814 0 0 0.600814 156.088 33.9166)" d="M0 -22.3235C12.3289 -22.3235 22.3235 -12.3289 22.3235 0C22.3235 12.3289 12.3289 22.3235 0 22.3235C-12.3289 22.3235 -22.3235 12.3289 -22.3235 0C-22.3235 -12.3289 -12.3289 -22.3235 0 -22.3235Z"></path>
    <path fill="#F4AF41" transform="matrix(0.600814 0 0 0.600814 111.606 33.9166)" d="M-1.52588e-05 -22.3235C12.3289 -22.3235 22.3235 -12.3289 22.3235 0C22.3235 12.3289 12.3289 22.3235 -1.52588e-05 22.3235C-12.3289 22.3235 -22.3235 12.3289 -22.3235 0C-22.3235 -12.3289 -12.3289 -22.3235 -1.52588e-05 -22.3235Z"></path>
    <path fill="none" stroke="#2E2E2E" stroke-width="5" stroke-miterlimit="4" transform="matrix(0.600814 0 0 0.600814 111.606 33.9166)" d="M-1.52588e-05 -22.3235C12.3289 -22.3235 22.3235 -12.3289 22.3235 0C22.3235 12.3289 12.3289 22.3235 -1.52588e-05 22.3235C-12.3289 22.3235 -22.3235 12.3289 -22.3235 0C-22.3235 -12.3289 -12.3289 -22.3235 -1.52588e-05 -22.3235Z"></path>
    <path fill="#F73901" transform="matrix(0.600814 0 0 0.600814 69.9157 33.9166)" d="M-7.62939e-06 -22.3235C12.3289 -22.3235 22.3235 -12.3289 22.3235 0C22.3235 12.3289 12.3289 22.3235 -7.62939e-06 22.3235C-12.3289 22.3235 -22.3235 12.3289 -22.3235 0C-22.3235 -12.3289 -12.3289 -22.3235 -7.62939e-06 -22.3235Z"></path>
    <path fill="none" stroke="#2E2E2E" stroke-width="5" stroke-miterlimit="4" transform="matrix(0.600814 0 0 0.600814 69.9157 33.9166)" d="M-7.62939e-06 -22.3235C12.3289 -22.3235 22.3235 -12.3289 22.3235 0C22.3235 12.3289 12.3289 22.3235 -7.62939e-06 22.3235C-12.3289 22.3235 -22.3235 12.3289 -22.3235 0C-22.3235 -12.3289 -12.3289 -22.3235 -7.62939e-06 -22.3235Z"></path>
    <clipPath id="cl_4">
      <path d="M183.963 11.0149L183.963 11.0149L183.963 58.8211L1108.05 60.0814L1108.05 11.0149"></path>
    </clipPath>
    <g clip-path="url(#cl_4)">
      <path fill="#2E2E2E" transform="matrix(0.520705 0.000244373 -0.000244373 0.520705 254.437 22.8695)" d="M3.30539 33.8721L3.30539 9.37207L14.7803 9.37207C17.7166 9.37207 19.9543 9.94751 21.4932 11.0984C23.0321 12.2493 23.8015 13.7987 23.8015 15.7466C23.8015 17.0442 23.498 18.1569 22.8909 19.0846C22.2838 20.0123 21.4743 20.7256 20.4622 21.2247C19.4501 21.7237 18.3429 21.9733 17.1406 21.9733L17.7797 20.7232C19.1648 20.7232 20.4042 20.9713 21.498 21.4673C22.5917 21.9633 23.4568 22.6934 24.0933 23.6577C24.7297 24.6219 25.0479 25.8055 25.0479 27.2085C25.0479 29.3115 24.2433 30.9479 22.634 32.1175C21.0247 33.2872 18.6401 33.8721 15.4803 33.8721L3.30539 33.8721ZM7.82943 30.2912L15.2069 30.2912C16.9092 30.2912 18.2114 30.0111 19.1133 29.4508C20.0153 28.8905 20.4663 28.0007 20.4663 26.7816C20.4663 25.5624 20.0153 24.6676 19.1133 24.0971C18.2114 23.5267 16.9092 23.2414 15.2069 23.2414L7.48275 23.2414L7.48275 19.7013L14.2697 19.7013C15.8532 19.7013 17.0741 19.4219 17.9324 18.8631C18.7907 18.3043 19.2198 17.459 19.2198 16.3271C19.2198 15.1922 18.7907 14.3461 17.9324 13.7889C17.0741 13.2316 15.8532 12.9529 14.2697 12.9529L7.82943 12.9529L7.82943 30.2912ZM29.5206 33.8721L29.5206 15.1842L33.6935 15.1842L33.6935 20.3192L33.1998 18.8266C33.7425 17.5567 34.62 16.5942 35.8322 15.9389C37.0444 15.2837 38.5387 14.9561 40.3151 14.9561L40.3151 19.122C40.1276 19.0956 39.9556 19.0759 39.799 19.0627C39.6424 19.0495 39.485 19.0429 39.3269 19.0429C37.6697 19.0429 36.3501 19.5248 35.3683 20.4885C34.3865 21.4522 33.8956 22.8955 33.8956 24.8185L33.8956 33.8721L29.5206 33.8721ZM44.047 33.8721L44.047 15.1842L48.422 15.1842L48.422 33.8721L44.047 33.8721ZM46.2345 12.09C45.4176 12.09 44.7451 11.8371 44.217 11.3312C43.6889 10.8253 43.4248 10.2038 43.4248 9.46681C43.4248 8.7298 43.6889 8.10835 44.217 7.60246C44.7451 7.09657 45.4176 6.84362 46.2345 6.84362C47.0513 6.84362 47.7238 7.08339 48.252 7.56293C48.7801 8.04247 49.0441 8.65075 49.0441 9.38776C49.0441 10.1541 48.7851 10.7961 48.2672 11.3137C47.7492 11.8312 47.0717 12.09 46.2345 12.09ZM65.6577 33.8721L65.6577 30.0809L65.433 29.2928L65.433 22.67C65.433 21.3912 65.0455 20.3952 64.2707 19.6817C63.4959 18.9682 62.3246 18.6115 60.7568 18.6115C59.7107 18.6115 58.6833 18.7761 57.6747 19.1054C56.6662 19.4347 55.8062 19.8834 55.095 20.4517L53.3978 17.2785C54.3959 16.5175 55.5903 15.9402 56.9809 15.5466C58.3716 15.1529 59.8135 14.9561 61.3069 14.9561C64.0077 14.9561 66.0998 15.6047 67.583 16.9021C69.0663 18.1994 69.808 20.2026 69.808 22.9116L69.808 33.8721L65.6577 33.8721ZM59.8061 34.1002C58.385 34.1002 57.1494 33.8623 56.0994 33.3866C55.0494 32.9109 54.2409 32.2492 53.6737 31.4017C53.1066 30.5542 52.823 29.5922 52.823 28.5159C52.823 27.462 53.0771 26.5187 53.5852 25.6858C54.0933 24.853 54.9186 24.1895 56.0613 23.6954C57.2039 23.2012 58.7161 22.9542 60.5978 22.9542L66.0201 22.9542L66.0201 25.855L60.9131 25.855C59.423 25.855 58.4194 26.0958 57.9024 26.5774C57.3853 27.0591 57.1268 27.6495 57.1268 28.3487C57.1268 29.1374 57.4432 29.7639 58.0762 30.2283C58.7091 30.6927 59.5813 30.9248 60.6929 30.9248C61.7781 30.9248 62.7463 30.6825 63.5974 30.1978C64.4486 29.7132 65.0604 28.9933 65.433 28.0382L66.1737 30.6575C65.7485 31.7558 64.9951 32.6041 63.9135 33.2025C62.8319 33.801 61.4628 34.1002 59.8061 34.1002ZM85.9946 14.9561C87.5053 14.9561 88.8454 15.2485 90.0151 15.8333C91.1848 16.4182 92.1087 17.3152 92.7869 18.5244C93.4651 19.7336 93.8042 21.2806 93.8042 23.1654L93.8042 33.8721L89.4292 33.8721L89.4292 23.7381C89.4292 22.0808 89.0414 20.8439 88.2659 20.0273C87.4903 19.2107 86.3955 18.8025 84.9815 18.8025C83.9572 18.8025 83.05 19.0113 82.2598 19.429C81.4695 19.8467 80.859 20.4676 80.4281 21.2917C79.9973 22.1158 79.7818 23.1585 79.7818 24.42L79.7818 33.8721L75.4068 33.8721L75.4068 15.1842L79.5797 15.1842L79.5797 20.2356L78.8365 18.6866C79.4816 17.4837 80.4298 16.5613 81.6812 15.9192C82.9325 15.2771 84.3704 14.9561 85.9946 14.9561ZM109.972 14.9561C111.482 14.9561 112.822 15.2485 113.992 15.8333C115.162 16.4182 116.086 17.3152 116.764 18.5244C117.442 19.7336 117.781 21.2806 117.781 23.1654L117.781 33.8721L113.406 33.8721L113.406 23.7381C113.406 22.0808 113.018 20.8439 112.243 20.0273C111.467 19.2107 110.373 18.8025 108.959 18.8025C107.934 18.8025 107.027 19.0113 106.237 19.429C105.447 19.8467 104.836 20.4676 104.405 21.2917C103.974 22.1158 103.759 23.1585 103.759 24.42L103.759 33.8721L99.3839 33.8721L99.3839 15.1842L103.557 15.1842L103.557 20.2356L102.814 18.6866C103.459 17.4837 104.407 16.5613 105.658 15.9192C106.91 15.2771 108.347 14.9561 109.972 14.9561ZM134.855 33.8721L134.855 30.0809L134.63 29.2928L134.63 22.67C134.63 21.3912 134.242 20.3952 133.467 19.6817C132.693 18.9682 131.521 18.6115 129.954 18.6115C128.907 18.6115 127.88 18.7761 126.872 19.1054C125.863 19.4347 125.003 19.8834 124.292 20.4517L122.595 17.2785C123.593 16.5175 124.787 15.9402 126.178 15.5466C127.568 15.1529 129.01 14.9561 130.504 14.9561C133.204 14.9561 135.297 15.6047 136.78 16.9021C138.263 18.1994 139.005 20.2026 139.005 22.9116L139.005 33.8721L134.855 33.8721ZM129.003 34.1002C127.582 34.1002 126.346 33.8623 125.296 33.3866C124.246 32.9109 123.438 32.2492 122.87 31.4017C122.303 30.5542 122.02 29.5922 122.02 28.5159C122.02 27.462 122.274 26.5187 122.782 25.6858C123.29 24.853 124.115 24.1895 125.258 23.6954C126.401 23.2012 127.913 22.9542 129.795 22.9542L135.217 22.9542L135.217 25.855L130.11 25.855C128.62 25.855 127.616 26.0958 127.099 26.5774C126.582 27.0591 126.324 27.6495 126.324 28.3487C126.324 29.1374 126.64 29.7639 127.273 30.2283C127.906 30.6927 128.778 30.9248 129.89 30.9248C130.975 30.9248 131.943 30.6825 132.794 30.1978C133.645 29.7132 134.257 28.9933 134.63 28.0382L135.37 30.6575C134.945 31.7558 134.192 32.6041 133.11 33.2025C132.029 33.801 130.66 34.1002 129.003 34.1002ZM166.016 34.2188C164.138 34.2188 162.4 33.9096 160.802 33.2913C159.205 32.6729 157.819 31.7972 156.645 30.664C155.471 29.5308 154.556 28.1978 153.899 26.6649C153.243 25.1321 152.915 23.4511 152.915 21.6221C152.915 19.793 153.243 18.1121 153.899 16.5792C154.556 15.0463 155.476 13.7133 156.661 12.5802C157.845 11.447 159.236 10.5712 160.833 9.95289C162.43 9.33456 164.168 9.02539 166.047 9.02539C168.044 9.02539 169.873 9.3692 171.535 10.0568C173.197 10.7445 174.594 11.7597 175.726 13.1026L172.797 15.8987C171.911 14.9277 170.919 14.2016 169.82 13.7202C168.722 13.2389 167.533 12.9982 166.254 12.9982C164.984 12.9982 163.816 13.2093 162.751 13.6315C161.685 14.0537 160.759 14.65 159.973 15.4203C159.187 16.1906 158.577 17.1022 158.145 18.1551C157.713 19.208 157.497 20.3637 157.497 21.6221C157.497 22.8805 157.713 24.0361 158.145 25.089C158.577 26.142 159.187 27.0536 159.973 27.8239C160.759 28.5942 161.685 29.1904 162.751 29.6126C163.816 30.0348 164.984 30.246 166.254 30.246C167.533 30.246 168.722 30.0053 169.82 29.5239C170.919 29.0426 171.911 28.3063 172.797 27.315L175.726 30.1111C174.594 31.4509 173.197 32.4705 171.535 33.1698C169.873 33.8691 168.034 34.2188 166.016 34.2188ZM190.294 14.9561C191.805 14.9561 193.145 15.2485 194.314 15.8333C195.484 16.4182 196.408 17.3152 197.086 18.5244C197.764 19.7336 198.103 21.2806 198.103 23.1654L198.103 33.8721L193.728 33.8721L193.728 23.7381C193.728 22.0808 193.341 20.8439 192.565 20.0273C191.79 19.2107 190.695 18.8025 189.281 18.8025C188.257 18.8025 187.349 19.0113 186.559 19.429C185.769 19.8467 185.158 20.4676 184.727 21.2917C184.297 22.1158 184.081 23.1585 184.081 24.42L184.081 33.8721L179.706 33.8721L179.706 7.90207L184.081 7.90207L184.081 20.2356L183.136 18.6866C183.781 17.4837 184.729 16.5613 185.98 15.9192C187.232 15.2771 188.67 14.9561 190.294 14.9561ZM203.683 33.8721L203.683 15.1842L208.058 15.1842L208.058 33.8721L203.683 33.8721ZM205.871 12.09C205.054 12.09 204.381 11.8371 203.853 11.3312C203.325 10.8253 203.061 10.2038 203.061 9.46681C203.061 8.7298 203.325 8.10835 203.853 7.60246C204.381 7.09657 205.054 6.84362 205.871 6.84362C206.688 6.84362 207.36 7.08339 207.888 7.56293C208.416 8.04247 208.68 8.65075 208.68 9.38776C208.68 10.1541 208.421 10.7961 207.903 11.3137C207.385 11.8312 206.708 12.09 205.871 12.09ZM221.719 34.1002C220.122 34.1002 218.715 33.8062 217.5 33.2184C216.285 32.6305 215.338 31.7231 214.658 30.4962C213.979 29.2693 213.639 27.7191 213.639 25.8456L213.639 15.1842L218.014 15.1842L218.014 25.2729C218.014 26.9513 218.398 28.2011 219.167 29.0222C219.935 29.8433 221.019 30.2538 222.419 30.2538C223.434 30.2538 224.324 30.045 225.087 29.6273C225.851 29.2096 226.448 28.5828 226.877 27.7471C227.307 26.9113 227.521 25.8744 227.521 24.6363L227.521 15.1842L231.896 15.1842L231.896 33.8721L227.723 33.8721L227.723 28.8297L228.467 30.3651C227.831 31.574 226.909 32.4988 225.701 33.1393C224.493 33.7799 223.166 34.1002 221.719 34.1002ZM246.329 25.9702L246.329 22.3058L255.976 22.3058L255.976 25.9702L246.329 25.9702ZM270.847 33.8721L270.847 9.37207L281.551 9.37207C284.199 9.37207 286.526 9.88314 288.532 10.9053C290.538 11.9274 292.103 13.3536 293.229 15.1837C294.355 17.0139 294.918 19.1592 294.918 21.6198C294.918 24.0804 294.355 26.2265 293.229 28.0581C292.103 29.8898 290.538 31.3167 288.532 32.3389C286.526 33.361 284.199 33.8721 281.551 33.8721L270.847 33.8721ZM275.389 30.0224L281.322 30.0224C283.161 30.0224 284.751 29.6737 286.093 28.9764C287.434 28.2792 288.477 27.3 289.221 26.039C289.965 24.778 290.337 23.3049 290.337 21.6198C290.337 19.9144 289.965 18.437 289.221 17.1876C288.477 15.9383 287.434 14.965 286.093 14.2677C284.751 13.5704 283.161 13.2218 281.322 13.2218L275.389 13.2218L275.389 30.0224ZM308.107 34.1002C306.038 34.1002 304.226 33.6888 302.67 32.8661C301.115 32.0434 299.909 30.91 299.054 29.466C298.199 28.0219 297.772 26.3752 297.772 24.5259C297.772 22.6705 298.188 21.0215 299.021 19.5789C299.855 18.1364 301.002 17.0053 302.465 16.1856C303.927 15.3659 305.583 14.9561 307.433 14.9561C309.262 14.9561 310.889 15.3548 312.315 16.1523C313.741 16.9497 314.862 18.0733 315.677 19.523C316.493 20.9727 316.901 22.6809 316.901 24.6478C316.901 24.8262 316.895 25.0338 316.882 25.2705C316.868 25.5073 316.85 25.725 316.827 25.9237L301.269 25.9237L301.269 23.023L314.516 23.023L312.791 23.9466C312.811 22.8748 312.591 21.9292 312.129 21.1096C311.668 20.29 311.036 19.648 310.234 19.1837C309.433 18.7193 308.502 18.4872 307.442 18.4872C306.382 18.4872 305.446 18.7193 304.632 19.1837C303.819 19.648 303.187 20.2951 302.737 21.1248C302.288 21.9546 302.063 22.9256 302.063 24.038L302.063 24.7404C302.063 25.8618 302.318 26.8513 302.827 27.7089C303.337 28.5665 304.057 29.2326 304.989 29.7071C305.921 30.1816 307.001 30.4188 308.23 30.4188C309.279 30.4188 310.222 30.2514 311.058 29.9165C311.893 29.5816 312.636 29.069 313.287 28.3789L315.649 31.0811C314.797 32.0641 313.734 32.8131 312.461 33.3279C311.187 33.8428 309.736 34.1002 308.107 34.1002ZM344.68 14.9561C346.188 14.9561 347.519 15.2485 348.674 15.8333C349.829 16.4182 350.734 17.3152 351.389 18.5244C352.044 19.7336 352.371 21.2806 352.371 23.1654L352.371 33.8721L347.996 33.8721L347.996 23.7381C347.996 22.0808 347.63 20.8439 346.898 20.0273C346.166 19.2107 345.13 18.8025 343.789 18.8025C342.834 18.8025 341.988 19.0105 341.249 19.4267C340.51 19.8429 339.938 20.4593 339.534 21.2758C339.129 22.0924 338.927 23.1254 338.927 24.3747L338.927 33.8721L334.552 33.8721L334.552 23.7381C334.552 22.0808 334.187 20.8439 333.458 20.0273C332.73 19.2107 331.692 18.8025 330.345 18.8025C329.39 18.8025 328.544 19.0105 327.805 19.4267C327.066 19.8429 326.494 20.4593 326.089 21.2758C325.685 22.0924 325.483 23.1254 325.483 24.3747L325.483 33.8721L321.108 33.8721L321.108 15.1842L325.28 15.1842L325.28 20.1611L324.533 18.6821C325.154 17.4792 326.067 16.5575 327.27 15.9169C328.473 15.2764 329.852 14.9561 331.406 14.9561C333.147 14.9561 334.665 15.3885 335.96 16.2533C337.255 17.1182 338.114 18.4347 338.537 20.2028L336.823 19.6044C337.422 18.2006 338.422 17.0749 339.825 16.2274C341.227 15.3799 342.846 14.9561 344.68 14.9561ZM366.43 34.1002C364.513 34.1002 362.804 33.6896 361.304 32.8684C359.804 32.0472 358.621 30.9134 357.756 29.4671C356.891 28.0207 356.458 26.3719 356.458 24.5207C356.458 22.6484 356.893 20.9957 357.762 19.5624C358.631 18.1291 359.811 17.0031 361.303 16.1843C362.795 15.3655 364.504 14.9561 366.43 14.9561C368.356 14.9561 370.072 15.3648 371.576 16.1823C373.081 16.9998 374.261 18.124 375.118 19.555C375.974 20.986 376.402 22.6413 376.402 24.5211C376.402 26.3797 375.975 28.0302 375.122 29.4728C374.268 30.9153 373.085 32.0472 371.573 32.8684C370.061 33.6896 368.346 34.1002 366.43 34.1002ZM366.43 30.3781C367.501 30.3781 368.453 30.1416 369.285 29.6686C370.117 29.1956 370.775 28.5158 371.258 27.6292C371.741 26.7427 371.983 25.7069 371.983 24.522C371.983 23.3189 371.741 22.2806 371.258 21.4072C370.775 20.5338 370.117 19.8607 369.285 19.3876C368.453 18.9146 367.506 18.6781 366.445 18.6781C365.385 18.6781 364.438 18.9146 363.606 19.3876C362.773 19.8607 362.11 20.5338 361.617 21.4072C361.124 22.2806 360.877 23.3189 360.877 24.522C360.877 25.7069 361.124 26.7427 361.617 27.6292C362.11 28.5158 362.773 29.1956 363.603 29.6686C364.434 30.1416 365.377 30.3781 366.43 30.3781ZM390.681 33.8721L390.681 9.37207L400.739 9.37207C402.904 9.37207 404.764 9.72001 406.321 10.4159C407.878 11.1118 409.075 12.1132 409.914 13.4203C410.753 14.7274 411.172 16.2853 411.172 18.094C411.172 19.8824 410.753 21.4236 409.914 22.7175C409.075 24.0114 407.878 25.0047 406.321 25.6976C404.764 26.3905 402.904 26.7369 400.739 26.7369L393.194 26.7369L395.223 24.6828L395.223 33.8721L390.681 33.8721ZM406.687 33.8721L400.484 24.9775L405.364 24.9775L411.606 33.8721L406.687 33.8721ZM395.223 25.1661L393.194 22.9753L400.549 22.9753C402.546 22.9753 404.052 22.546 405.067 21.6872C406.083 20.8285 406.591 19.6308 406.591 18.094C406.591 16.5369 406.083 15.3341 405.067 14.4855C404.052 13.637 402.546 13.2127 400.549 13.2127L393.194 13.2127L395.223 10.9914L395.223 25.1661ZM424.609 34.1002C422.539 34.1002 420.727 33.6888 419.171 32.8661C417.616 32.0434 416.411 30.91 415.556 29.466C414.701 28.0219 414.273 26.3752 414.273 24.5259C414.273 22.6705 414.69 21.0215 415.523 19.5789C416.356 18.1364 417.504 17.0053 418.966 16.1856C420.428 15.3659 422.084 14.9561 423.935 14.9561C425.764 14.9561 427.391 15.3548 428.817 16.1523C430.242 16.9497 431.363 18.0733 432.179 19.523C432.995 20.9727 433.403 22.6809 433.403 24.6478C433.403 24.8262 433.396 25.0338 433.383 25.2705C433.37 25.5073 433.352 25.725 433.328 25.9237L417.771 25.9237L417.771 23.023L431.018 23.023L429.292 23.9466C429.313 22.8748 429.092 21.9292 428.631 21.1096C428.169 20.29 427.538 19.648 426.736 19.1837C425.934 18.7193 425.003 18.4872 423.944 18.4872C422.884 18.4872 421.947 18.7193 421.134 19.1837C420.32 19.648 419.689 20.2951 419.239 21.1248C418.789 21.9546 418.564 22.9256 418.564 24.038L418.564 24.7404C418.564 25.8618 418.819 26.8513 419.329 27.7089C419.838 28.5665 420.559 29.2326 421.491 29.7071C422.422 30.1816 423.503 30.4188 424.732 30.4188C425.781 30.4188 426.723 30.2514 427.559 29.9165C428.395 29.5816 429.138 29.069 429.788 28.3789L432.151 31.0811C431.299 32.0641 430.236 32.8131 428.962 33.3279C427.689 33.8428 426.237 34.1002 424.609 34.1002ZM446.381 34.1002C444.312 34.1002 442.499 33.6888 440.944 32.8661C439.388 32.0434 438.183 30.91 437.328 29.466C436.473 28.0219 436.045 26.3752 436.045 24.5259C436.045 22.6705 436.462 21.0215 437.295 19.5789C438.129 18.1364 439.276 17.0053 440.738 16.1856C442.201 15.3659 443.857 14.9561 445.707 14.9561C447.536 14.9561 449.163 15.3548 450.589 16.1523C452.015 16.9497 453.135 18.0733 453.951 19.523C454.767 20.9727 455.175 22.6809 455.175 24.6478C455.175 24.8262 455.169 25.0338 455.156 25.2705C455.142 25.5073 455.124 25.725 455.101 25.9237L439.543 25.9237L439.543 23.023L452.79 23.023L451.065 23.9466C451.085 22.8748 450.864 21.9292 450.403 21.1096C449.942 20.29 449.31 19.648 448.508 19.1837C447.706 18.7193 446.776 18.4872 445.716 18.4872C444.656 18.4872 443.72 18.7193 442.906 19.1837C442.093 19.648 441.461 20.2951 441.011 21.1248C440.562 21.9546 440.337 22.9256 440.337 24.038L440.337 24.7404C440.337 25.8618 440.592 26.8513 441.101 27.7089C441.611 28.5665 442.331 29.2326 443.263 29.7071C444.195 30.1816 445.275 30.4188 446.504 30.4188C447.553 30.4188 448.496 30.2514 449.332 29.9165C450.167 29.5816 450.91 29.069 451.561 28.3789L453.923 31.0811C453.071 32.0641 452.008 32.8131 450.735 33.3279C449.461 33.8428 448.01 34.1002 446.381 34.1002ZM459.381 33.8721L459.381 7.90207L463.756 7.90207L463.756 33.8721L459.381 33.8721Z"></path>
      <path fill="#2E2E2E" transform="matrix(1.00136 0 0 1.00136 243.043 31.2825)" d="M-0.442865 -6.42286C-0.221186 -6.87165 0.221186 -6.87165 0.442864 -6.42286L1.70695 -3.86369C2.12658 -3.01414 2.20174 -2.95956 3.13944 -2.82342L5.96733 -2.41285C6.46231 -2.34099 6.59888 -1.92044 6.24057 -1.57146L4.19485 0.420947C3.51661 1.08152 3.48748 1.17112 3.64766 2.10424L4.13045 4.91677C4.21511 5.40996 3.85735 5.67002 3.41434 5.43732L0.885292 4.10883C0.0460276 3.66798 -0.046028 3.66798 -0.885292 4.10883L-3.41434 5.43732C-3.85735 5.67002 -4.21511 5.40996 -4.13045 4.91677L-3.64766 2.10424C-3.48748 1.17112 -3.51661 1.08152 -4.19485 0.420947L-6.24057 -1.57146C-6.59888 -1.92044 -6.46231 -2.34099 -5.96733 -2.41285L-3.13944 -2.82342C-2.20174 -2.95956 -2.12658 -3.01414 -1.70695 -3.86369L-0.442865 -6.42286Z"></path>
      <path fill="none" stroke="#2E2E2E" stroke-width="1" stroke-miterlimit="4" transform="matrix(1.00136 0 0 1.00136 201.233 33.6426)" d="M-0.442566 -8.77991C-0.221131 -9.22859 0.22113 -9.22859 0.442565 -8.77991L2.40133 -4.81102C2.82058 -3.96153 2.89603 -3.90671 3.8335 -3.77049L8.21343 -3.13405C8.70858 -3.0621 8.84524 -2.64148 8.48695 -2.29224L5.31761 0.797113C4.63924 1.45836 4.61043 1.54704 4.77057 2.48073L5.51875 6.84297C5.60333 7.33611 5.24553 7.59606 4.80266 7.36323L0.885131 5.30367C0.0466266 4.86284 -0.046627 4.86284 -0.885132 5.30367L-4.80266 7.36323C-5.24553 7.59606 -5.60333 7.33611 -5.51875 6.84297L-4.77057 2.48073C-4.61043 1.54704 -4.63924 1.45836 -5.31761 0.797113L-8.48695 -2.29224C-8.84524 -2.64148 -8.70858 -3.0621 -8.21343 -3.13405L-3.8335 -3.77049C-2.89603 -3.90671 -2.82058 -3.96152 -2.40133 -4.81102L-0.442566 -8.77991Z"></path>
      <path fill="none" stroke="#2E2E2E" stroke-width="0.80000001" stroke-miterlimit="4" transform="matrix(1.00136 0 0 1.00136 221.974 38.6861)" d="M0 -1.87012C1.03284 -1.87012 1.87012 -1.03284 1.87012 0C1.87012 1.03284 1.03284 1.87012 0 1.87012C-1.03284 1.87012 -1.87012 1.03284 -1.87012 0C-1.87012 -1.03284 -1.03284 -1.87012 0 -1.87012Z"></path>
      <path fill="#2E2E2E" transform="matrix(1.00136 0 0 1.00136 216.03 34.7458)" d="M0 -0.935059C0.516419 -0.935059 0.935059 -0.516419 0.935059 0C0.935059 0.516419 0.516419 0.935059 0 0.935059C-0.516419 0.935059 -0.935059 0.516419 -0.935059 0C-0.935059 -0.516419 -0.516419 -0.935059 0 -0.935059Z"></path>
      <path fill="none" stroke="#2E2E2E" stroke-width="0.80000001" stroke-miterlimit="4" transform="matrix(1.00136 0 0 1.00136 229.984 31.6766)" d="M0 -1.87012C1.03284 -1.87012 1.87012 -1.03284 1.87012 0C1.87012 1.03284 1.03284 1.87012 0 1.87012C-1.03284 1.87012 -1.87012 1.03284 -1.87012 0C-1.87012 -1.03284 -1.03284 -1.87012 0 -1.87012Z"></path>
      <path fill="#2E2E2E" transform="matrix(-1.00136 -8.75414e-08 -8.75414e-08 1.00136 512.408 31.2825)" d="M-0.442865 -6.42286C-0.221186 -6.87165 0.221186 -6.87165 0.442864 -6.42286L1.70695 -3.86369C2.12658 -3.01414 2.20174 -2.95956 3.13944 -2.82342L5.96733 -2.41285C6.46231 -2.34099 6.59888 -1.92044 6.24057 -1.57146L4.19485 0.420947C3.51661 1.08152 3.48748 1.17112 3.64766 2.10424L4.13045 4.91677C4.21511 5.40996 3.85735 5.67002 3.41434 5.43732L0.885292 4.10883C0.0460276 3.66798 -0.046028 3.66798 -0.885292 4.10883L-3.41434 5.43732C-3.85735 5.67002 -4.21511 5.40996 -4.13045 4.91677L-3.64766 2.10424C-3.48748 1.17112 -3.51661 1.08152 -4.19485 0.420947L-6.24057 -1.57146C-6.59888 -1.92044 -6.46231 -2.34099 -5.96733 -2.41285L-3.13944 -2.82342C-2.20174 -2.95956 -2.12658 -3.01414 -1.70695 -3.86369L-0.442865 -6.42286Z"></path>
      <path fill="none" stroke="#2E2E2E" stroke-width="1" stroke-miterlimit="4" transform="matrix(-1.00136 -8.75414e-08 -8.75414e-08 1.00136 554.219 33.6426)" d="M-0.442566 -8.77991C-0.221131 -9.22859 0.22113 -9.22859 0.442565 -8.77991L2.40133 -4.81102C2.82058 -3.96153 2.89603 -3.90671 3.8335 -3.77049L8.21343 -3.13405C8.70858 -3.0621 8.84524 -2.64148 8.48695 -2.29224L5.31761 0.797113C4.63924 1.45836 4.61043 1.54704 4.77057 2.48073L5.51875 6.84297C5.60333 7.33611 5.24553 7.59606 4.80266 7.36323L0.885131 5.30367C0.0466266 4.86284 -0.046627 4.86284 -0.885132 5.30367L-4.80266 7.36323C-5.24553 7.59606 -5.60333 7.33611 -5.51875 6.84297L-4.77057 2.48073C-4.61043 1.54704 -4.63924 1.45836 -5.31761 0.797113L-8.48695 -2.29224C-8.84524 -2.64148 -8.70858 -3.0621 -8.21343 -3.13405L-3.8335 -3.77049C-2.89603 -3.90671 -2.82058 -3.96152 -2.40133 -4.81102L-0.442566 -8.77991Z"></path>
      <path fill="none" stroke="#2E2E2E" stroke-width="0.80000001" stroke-miterlimit="4" transform="matrix(-1.00136 -8.75414e-08 -8.75414e-08 1.00136 533.478 38.6861)" d="M0 -1.87012C1.03284 -1.87012 1.87012 -1.03284 1.87012 0C1.87012 1.03284 1.03284 1.87012 0 1.87012C-1.03284 1.87012 -1.87012 1.03284 -1.87012 0C-1.87012 -1.03284 -1.03284 -1.87012 0 -1.87012Z"></path>
      <path fill="#2E2E2E" transform="matrix(-1.00136 -8.75414e-08 -8.75414e-08 1.00136 539.421 34.7458)" d="M0 -0.935059C0.516419 -0.935059 0.935059 -0.516419 0.935059 0C0.935059 0.516419 0.516419 0.935059 0 0.935059C-0.516419 0.935059 -0.935059 0.516419 -0.935059 0C-0.935059 -0.516419 -0.516419 -0.935059 0 -0.935059Z"></path>
      <path fill="none" stroke="#2E2E2E" stroke-width="0.80000001" stroke-miterlimit="4" transform="matrix(-1.00136 -8.75414e-08 -8.75414e-08 1.00136 525.467 31.6766)" d="M0 -1.87012C1.03284 -1.87012 1.87012 -1.03284 1.87012 0C1.87012 1.03284 1.03284 1.87012 0 1.87012C-1.03284 1.87012 -1.87012 1.03284 -1.87012 0C-1.87012 -1.03284 -1.03284 -1.87012 0 -1.87012Z"></path>
    </g>
  </g>
</svg>