<?xml version="1.0" encoding="UTF-8"?>
<svg id="Layer_2" data-name="Layer 2" xmlns="http://www.w3.org/2000/svg" viewBox="0 0 640 448">
  <g id="Layer_1-2" data-name="Layer 1">
    <path d="m464,0c-59.59,0-112.2,37.79-144,95.46C288.2,37.79,235.6,0,176,0,78.8,0,0,100.3,0,224s78.8,224,176,224c59.59,0,112.2-37.79,144-95.46,31.8,57.66,84.4,95.46,144,95.46,97.2,0,176-100.3,176-224S561.2,0,464,0ZM176,384c-35.91,0-68.22-25.1-88.88-64.89,2.93.39,5.84.89,8.88.89,35.35,0,64-28.65,64-64s-28.7-64-64-64c-11.9,0-21.2,3-30.24,7.9,8.45-75.7,55.24-135.9,110.24-135.9,60.7,0,112,73.3,112,160s-51.3,160-112,160Zm288,0c-35.91,0-68.22-25.1-88.88-64.89,2.98.39,4.98.89,8.88.89,35.35,0,64-28.65,64-64s-28.65-64-64-64c-11,0-21.2,3.03-30.24,7.92,8.44-75.72,55.24-135.92,110.24-135.92,60.7,0,112,73.3,112,160s-51.3,160-112,160Z"/>
  </g>
</svg>